<svg width="40" height="40" viewBox="0 0 40 40" fill="none" xmlns="http://www.w3.org/2000/svg">
<path d="M16.125 26.6666C16.9861 26.6666 17.7083 26.368 18.2917 25.7708C18.875 25.1735 19.1667 24.4583 19.1667 23.6249C19.1667 22.7916 18.875 22.0763 18.2917 21.4791C17.7083 20.8819 17 20.5833 16.1667 20.5833C15.3055 20.5833 14.5764 20.8819 13.9792 21.4791C13.3819 22.0763 13.0833 22.7916 13.0833 23.6249C13.0833 24.4583 13.3819 25.1735 13.9792 25.7708C14.5764 26.368 15.2917 26.6666 16.125 26.6666ZM23.875 26.6666C24.7083 26.6666 25.4236 26.368 26.0208 25.7708C26.618 25.1735 26.9167 24.4583 26.9167 23.6249C26.9167 22.7916 26.618 22.0763 26.0208 21.4791C25.4236 20.8819 24.7083 20.5833 23.875 20.5833C23.0417 20.5833 22.3264 20.8819 21.7292 21.4791C21.1319 22.0763 20.8333 22.7916 20.8333 23.6249C20.8333 24.4583 21.1319 25.1735 21.7292 25.7708C22.3264 26.368 23.0417 26.6666 23.875 26.6666ZM20 18.8749C20.8333 18.8749 21.5486 18.5833 22.1458 17.9999C22.7431 17.4166 23.0417 16.6944 23.0417 15.8333C23.0417 14.9999 22.7431 14.2846 22.1458 13.6874C21.5486 13.0902 20.8333 12.7916 20 12.7916C19.1667 12.7916 18.4514 13.0902 17.8542 13.6874C17.2569 14.2846 16.9583 14.9999 16.9583 15.8333C16.9583 16.6944 17.2569 17.4166 17.8542 17.9999C18.4514 18.5833 19.1667 18.8749 20 18.8749ZM20 36.6666C17.7222 36.6666 15.5694 36.2291 13.5417 35.3541C11.5139 34.4791 9.74305 33.2846 8.22916 31.7708C6.71527 30.2569 5.52083 28.486 4.64583 26.4583C3.77083 24.4305 3.33333 22.2638 3.33333 19.9583C3.33333 17.6805 3.77083 15.5277 4.64583 13.4999C5.52083 11.4721 6.71527 9.70825 8.22916 8.20825C9.74305 6.70825 11.5139 5.52075 13.5417 4.64575C15.5694 3.77075 17.7361 3.33325 20.0417 3.33325C22.3194 3.33325 24.4722 3.77075 26.5 4.64575C28.5278 5.52075 30.2917 6.70825 31.7917 8.20825C33.2917 9.70825 34.4792 11.4721 35.3542 13.4999C36.2292 15.5277 36.6667 17.6944 36.6667 19.9999C36.6667 22.2777 36.2292 24.4305 35.3542 26.4583C34.4792 28.486 33.2917 30.2569 31.7917 31.7708C30.2917 33.2846 28.5278 34.4791 26.5 35.3541C24.4722 36.2291 22.3055 36.6666 20 36.6666ZM20.0417 34.1666C23.9583 34.1666 27.2917 32.7846 30.0417 30.0208C32.7917 27.2569 34.1667 23.9027 34.1667 19.9583C34.1667 16.0416 32.7917 12.7083 30.0417 9.95825C27.2917 7.20825 23.9444 5.83325 20 5.83325C16.0833 5.83325 12.7431 7.20825 9.97916 9.95825C7.21527 12.7083 5.83333 16.0555 5.83333 19.9999C5.83333 23.9166 7.21527 27.2569 9.97916 30.0208C12.7431 32.7846 16.0972 34.1666 20.0417 34.1666Z" fill="white"/>
</svg>
