<svg width="30" height="30" viewBox="0 0 30 30" fill="none" xmlns="http://www.w3.org/2000/svg">
<path d="M12.0938 20C12.7396 20 13.2813 19.776 13.7188 19.3281C14.1562 18.8802 14.375 18.3438 14.375 17.7188C14.375 17.0938 14.1562 16.5573 13.7188 16.1094C13.2813 15.6615 12.75 15.4375 12.125 15.4375C11.4792 15.4375 10.9323 15.6615 10.4844 16.1094C10.0365 16.5573 9.8125 17.0938 9.8125 17.7188C9.8125 18.3438 10.0365 18.8802 10.4844 19.3281C10.9323 19.776 11.4688 20 12.0938 20ZM17.9062 20C18.5312 20 19.0677 19.776 19.5156 19.3281C19.9635 18.8802 20.1875 18.3438 20.1875 17.7188C20.1875 17.0938 19.9635 16.5573 19.5156 16.1094C19.0677 15.6615 18.5312 15.4375 17.9062 15.4375C17.2812 15.4375 16.7448 15.6615 16.2969 16.1094C15.849 16.5573 15.625 17.0938 15.625 17.7188C15.625 18.3438 15.849 18.8802 16.2969 19.3281C16.7448 19.776 17.2812 20 17.9062 20ZM15 14.1562C15.625 14.1562 16.1615 13.9375 16.6094 13.5C17.0573 13.0625 17.2812 12.5208 17.2812 11.875C17.2812 11.25 17.0573 10.7135 16.6094 10.2656C16.1615 9.81771 15.625 9.59375 15 9.59375C14.375 9.59375 13.8385 9.81771 13.3906 10.2656C12.9427 10.7135 12.7188 11.25 12.7188 11.875C12.7188 12.5208 12.9427 13.0625 13.3906 13.5C13.8385 13.9375 14.375 14.1562 15 14.1562ZM15 27.5C13.2917 27.5 11.6771 27.1719 10.1562 26.5156C8.63542 25.8594 7.30729 24.9635 6.17188 23.8281C5.03646 22.6927 4.14062 21.3646 3.48437 19.8438C2.82812 18.3229 2.5 16.6979 2.5 14.9688C2.5 13.2604 2.82812 11.6458 3.48437 10.125C4.14062 8.60417 5.03646 7.28125 6.17188 6.15625C7.30729 5.03125 8.63542 4.14062 10.1562 3.48437C11.6771 2.82812 13.3021 2.5 15.0312 2.5C16.7396 2.5 18.3542 2.82812 19.875 3.48437C21.3958 4.14062 22.7188 5.03125 23.8438 6.15625C24.9688 7.28125 25.8594 8.60417 26.5156 10.125C27.1719 11.6458 27.5 13.2708 27.5 15C27.5 16.7083 27.1719 18.3229 26.5156 19.8438C25.8594 21.3646 24.9688 22.6927 23.8438 23.8281C22.7188 24.9635 21.3958 25.8594 19.875 26.5156C18.3542 27.1719 16.7292 27.5 15 27.5ZM15.0312 25.625C17.9687 25.625 20.4688 24.5885 22.5312 22.5156C24.5938 20.4427 25.625 17.9271 25.625 14.9688C25.625 12.0313 24.5938 9.53125 22.5312 7.46875C20.4688 5.40625 17.9583 4.375 15 4.375C12.0625 4.375 9.55729 5.40625 7.48438 7.46875C5.41146 9.53125 4.375 12.0417 4.375 15C4.375 17.9375 5.41146 20.4427 7.48438 22.5156C9.55729 24.5885 12.0729 25.625 15.0312 25.625Z" fill="#878889"/>
</svg>
